<!-- Generator: Adobe Illustrator 19.2.0, SVG Export Plug-In  -->
<svg version="1.1"
	 xmlns="http://www.w3.org/2000/svg" xmlns:xlink="http://www.w3.org/1999/xlink" xmlns:a="http://ns.adobe.com/AdobeSVGViewerExtensions/3.0/"
	 x="0px" y="0px" width="136.143px" height="33.972px" viewBox="0 0 136.143 33.972"
	 style="enable-background:new 0 0 136.143 33.972;" xml:space="preserve">
<style type="text/css">
	.st0{fill-rule:evenodd;clip-rule:evenodd;fill:#ED8500;}
</style>
<defs>
</defs>
<g>
	<path class="st0" d="M22.375,0h9.636c0.937,0,1.699,0.764,1.699,1.697l0,0c0,0.936-0.762,1.7-1.699,1.7h-9.636
		c-0.934,0-1.698-0.764-1.698-1.7l0,0C20.677,0.764,21.441,0,22.375,0L22.375,0L22.375,0z"/>
	<path class="st0" d="M0.923,27.544C0.348,28.225,0,29.104,0,30.065c0,2.157,1.751,3.907,3.907,3.907H50.55
		c2.158,0,3.907-1.75,3.907-3.907c0-0.977-0.361-1.871-0.952-2.557L34.951,5.477c-0.304-0.344-0.75-0.559-1.246-0.559
		c-0.618,0-1.158,0.336-1.446,0.835L21.364,24.611c-0.143,0.236-0.231,0.532-0.231,0.848c0,0.921,0.746,1.666,1.665,1.666h16.326
		c0.92,0,1.668-0.744,1.668-1.666c0-0.919-0.747-1.666-1.668-1.666h-12.82l7.718-13.366l14.578,17.395
		c0.244,0.31,0.378,0.675,0.378,1.07c0,0.939-0.761,1.701-1.7,1.701H7.149c-0.942,0-1.705-0.761-1.705-1.701
		c0-0.44,0.167-0.841,0.421-1.115L20.913,9.766c0.588-0.703,1.683-1.45,3.067-1.45h3.213c0.921,0,1.666-0.814,1.666-1.734
		c0-0.92-0.745-1.664-1.666-1.664h-5.546c-1.214,0-2.223,0.52-3.003,1.452L0.923,27.544L0.923,27.544z"/>
	<path class="st0" d="M87.9,5.636c0-0.25,0.031-0.484,0.099-0.707c0.066-0.222,0.165-0.43,0.297-0.624
		c0.223-0.328,0.507-0.579,0.847-0.758c0.338-0.178,0.708-0.268,1.114-0.268c0.3,0,0.591,0.059,0.873,0.176
		c0.28,0.117,0.531,0.284,0.751,0.504c0.227,0.227,0.401,0.481,0.516,0.764c0.121,0.284,0.18,0.582,0.18,0.895
		c0,0.324-0.055,0.631-0.169,0.915c-0.107,0.286-0.274,0.539-0.491,0.76c-0.218,0.231-0.471,0.407-0.763,0.534
		c-0.292,0.123-0.594,0.184-0.912,0.184c-0.337,0-0.65-0.06-0.937-0.18C89.02,7.71,88.765,7.53,88.544,7.293
		c-0.211-0.226-0.373-0.478-0.481-0.758C87.953,6.255,87.9,5.955,87.9,5.636L87.9,5.636L87.9,5.636z M88.833,5.604
		c0,0.198,0.032,0.38,0.097,0.548c0.064,0.169,0.159,0.323,0.288,0.464c0.139,0.151,0.298,0.268,0.475,0.351
		c0.177,0.083,0.359,0.123,0.548,0.123c0.403,0,0.735-0.142,1.003-0.426c0.271-0.282,0.403-0.635,0.403-1.06
		c0-0.387-0.133-0.717-0.407-0.992c-0.271-0.275-0.596-0.41-0.98-0.41c-0.396,0-0.733,0.135-1.011,0.408
		C88.972,4.885,88.833,5.215,88.833,5.604L88.833,5.604L88.833,5.604z M86.448,7.922V3.37h0.889v4.552H86.448L86.448,7.922z
		 M85.882,5.501c0,0.018,0,0.043,0.002,0.077c0.003,0.033,0.003,0.059,0.003,0.077c0,0.194-0.017,0.377-0.053,0.544
		c-0.034,0.168-0.092,0.326-0.163,0.474c-0.214,0.428-0.506,0.757-0.876,0.989c-0.372,0.232-0.789,0.348-1.256,0.348
		c-0.344,0-0.664-0.066-0.952-0.197c-0.293-0.132-0.556-0.327-0.789-0.585c-0.195-0.216-0.342-0.462-0.446-0.737
		c-0.099-0.275-0.152-0.566-0.152-0.874c0-0.317,0.062-0.619,0.185-0.902c0.125-0.285,0.305-0.544,0.543-0.778
		c0.224-0.222,0.473-0.388,0.75-0.497c0.276-0.108,0.581-0.163,0.916-0.163c0.491,0,0.913,0.121,1.271,0.359
		c0.354,0.239,0.63,0.59,0.823,1.05h-1.082c-0.132-0.164-0.286-0.289-0.465-0.371c-0.178-0.081-0.376-0.123-0.597-0.123
		c-0.39,0-0.717,0.14-0.99,0.421c-0.272,0.282-0.406,0.623-0.406,1.026c0,0.409,0.135,0.754,0.411,1.033
		c0.273,0.281,0.61,0.421,1.01,0.421c0.278,0,0.528-0.075,0.758-0.225c0.225-0.15,0.39-0.354,0.5-0.607h-1.787V5.501H85.882
		L85.882,5.501z M80.66,7.922h-2.456V3.37h2.456v0.801h-1.575v1.037h1.575v0.786h-1.575V7.12h1.575V7.922L80.66,7.922z
		 M77.697,7.922h-2.31V3.37h0.882v3.75h1.428V7.922L77.697,7.922z M70.149,5.636c0-0.25,0.035-0.484,0.101-0.707
		c0.065-0.222,0.165-0.43,0.294-0.624c0.226-0.328,0.509-0.579,0.849-0.758c0.338-0.178,0.711-0.268,1.111-0.268
		c0.303,0,0.593,0.059,0.876,0.176c0.279,0.117,0.531,0.284,0.751,0.504c0.227,0.227,0.399,0.481,0.519,0.764
		c0.116,0.284,0.176,0.582,0.176,0.895c0,0.324-0.054,0.631-0.165,0.915c-0.113,0.286-0.277,0.539-0.493,0.76
		C73.95,7.524,73.696,7.7,73.404,7.827c-0.29,0.123-0.596,0.184-0.911,0.184c-0.342,0-0.653-0.06-0.938-0.18
		c-0.285-0.121-0.537-0.301-0.76-0.538c-0.211-0.226-0.374-0.478-0.482-0.758C70.203,6.255,70.149,5.955,70.149,5.636L70.149,5.636
		L70.149,5.636z M71.082,5.604c0,0.198,0.034,0.38,0.1,0.548c0.062,0.169,0.159,0.323,0.287,0.464
		c0.137,0.151,0.298,0.268,0.473,0.351c0.178,0.083,0.361,0.123,0.551,0.123c0.399,0,0.732-0.142,1.003-0.426
		c0.269-0.282,0.403-0.635,0.403-1.06c0-0.387-0.135-0.717-0.408-0.992c-0.273-0.275-0.597-0.41-0.98-0.41
		c-0.399,0-0.736,0.135-1.012,0.408C71.222,4.885,71.082,5.215,71.082,5.604L71.082,5.604L71.082,5.604z M69.812,4.72h-1.088
		c-0.128-0.176-0.281-0.306-0.461-0.394c-0.179-0.087-0.38-0.131-0.607-0.131c-0.184,0-0.357,0.034-0.524,0.103
		c-0.164,0.068-0.309,0.168-0.436,0.301c-0.135,0.137-0.24,0.295-0.314,0.476c-0.074,0.18-0.109,0.364-0.109,0.554
		c0,0.417,0.134,0.767,0.399,1.048c0.271,0.285,0.598,0.424,0.986,0.424c0.223,0,0.422-0.04,0.601-0.124
		c0.177-0.083,0.324-0.205,0.434-0.363h1.09c-0.213,0.467-0.496,0.815-0.85,1.049c-0.355,0.233-0.778,0.35-1.27,0.35
		c-0.344,0-0.657-0.066-0.946-0.197c-0.289-0.132-0.547-0.327-0.778-0.585c-0.195-0.215-0.341-0.459-0.439-0.733
		C65.4,6.224,65.348,5.93,65.348,5.618c0-0.317,0.062-0.619,0.182-0.902c0.121-0.285,0.297-0.544,0.532-0.778
		c0.221-0.217,0.464-0.38,0.735-0.49c0.27-0.114,0.559-0.169,0.872-0.169c0.496,0,0.922,0.119,1.275,0.356
		C69.298,3.872,69.588,4.233,69.812,4.72L69.812,4.72L69.812,4.72z"/>
	<path class="st0" d="M128.406,29.867l-0.27,0.728h-0.706l1.35-3.477h0.589l1.329,3.477h-0.73l-0.273-0.728H128.406L128.406,29.867z
		 M129.469,29.223l-0.409-1.12l-0.42,1.12H129.469L129.469,29.223z M124.434,30.595h-0.674v-3.477h0.902l0.882,2.529l0.881-2.529
		h0.9v3.477h-0.669l0.023-2.523l-0.879,2.523h-0.512l-0.882-2.523L124.434,30.595L124.434,30.595z M122.497,30.595v-3.477h0.684
		v3.477H122.497L122.497,30.595z M122.108,30.595h-1.762v-3.477h0.673v2.866h1.089V30.595L122.108,30.595z M116.344,28.849
		c0-0.19,0.025-0.371,0.075-0.54c0.051-0.169,0.126-0.328,0.227-0.476c0.171-0.252,0.388-0.443,0.646-0.579
		c0.26-0.136,0.543-0.204,0.851-0.204c0.232,0,0.452,0.045,0.667,0.133c0.214,0.089,0.405,0.218,0.576,0.385
		c0.174,0.174,0.305,0.368,0.395,0.585c0.091,0.216,0.136,0.444,0.136,0.683c0,0.247-0.042,0.481-0.128,0.698
		c-0.085,0.219-0.21,0.413-0.373,0.581c-0.17,0.177-0.364,0.313-0.585,0.408c-0.221,0.093-0.455,0.14-0.698,0.14
		c-0.258,0-0.498-0.046-0.714-0.138c-0.218-0.091-0.411-0.228-0.582-0.41c-0.16-0.171-0.285-0.365-0.366-0.578
		C116.384,29.322,116.344,29.093,116.344,28.849L116.344,28.849L116.344,28.849z M117.059,28.827c0,0.15,0.023,0.289,0.074,0.418
		c0.047,0.128,0.121,0.247,0.217,0.355c0.109,0.115,0.228,0.205,0.364,0.268c0.135,0.062,0.275,0.094,0.418,0.094
		c0.308,0,0.56-0.109,0.767-0.326c0.206-0.215,0.311-0.486,0.311-0.809c0-0.296-0.104-0.549-0.313-0.759
		c-0.207-0.21-0.456-0.314-0.746-0.314c-0.305,0-0.563,0.104-0.774,0.313C117.163,28.275,117.059,28.528,117.059,28.827
		L117.059,28.827L117.059,28.827z M116.086,28.149h-0.831c-0.098-0.134-0.217-0.234-0.353-0.3c-0.135-0.068-0.292-0.101-0.463-0.101
		c-0.14,0-0.274,0.026-0.399,0.08c-0.128,0.052-0.239,0.128-0.335,0.229c-0.102,0.104-0.185,0.225-0.24,0.364
		c-0.057,0.138-0.086,0.278-0.086,0.423c0,0.319,0.105,0.587,0.307,0.801c0.203,0.216,0.454,0.324,0.752,0.324
		c0.171,0,0.324-0.031,0.461-0.096c0.138-0.063,0.246-0.155,0.331-0.276h0.829c-0.16,0.355-0.377,0.621-0.646,0.8
		c-0.274,0.179-0.595,0.267-0.973,0.267c-0.259,0-0.5-0.049-0.721-0.15c-0.219-0.1-0.417-0.248-0.591-0.446
		c-0.148-0.163-0.263-0.35-0.338-0.561c-0.075-0.207-0.115-0.431-0.115-0.669c0-0.243,0.046-0.472,0.138-0.689
		c0.093-0.217,0.229-0.415,0.407-0.594c0.169-0.166,0.356-0.291,0.563-0.375c0.205-0.087,0.426-0.128,0.665-0.128
		c0.378,0,0.706,0.09,0.973,0.271C115.694,27.502,115.914,27.78,116.086,28.149L116.086,28.149L116.086,28.149z"/>
	<path class="st0" d="M133.752,17.618c-0.27-0.503-0.613-0.879-1.028-1.13c-0.42-0.25-0.918-0.376-1.486-0.376
		c-0.76,0-1.396,0.274-1.907,0.821c-0.511,0.551-0.766,1.238-0.766,2.068c0,0.817,0.263,1.498,0.784,2.042
		c0.521,0.542,1.177,0.813,1.966,0.813c0.604,0,1.111-0.129,1.514-0.388c0.405-0.26,0.706-0.649,0.904-1.169h2.391
		c-0.294,1.178-0.86,2.105-1.706,2.775c-0.849,0.671-1.876,1.006-3.086,1.006c-0.712,0-1.372-0.126-1.979-0.379
		c-0.606-0.255-1.155-0.631-1.648-1.126c-0.454-0.468-0.809-1.014-1.066-1.642c-0.254-0.628-0.387-1.265-0.387-1.913
		c0-0.679,0.12-1.311,0.352-1.901c0.232-0.589,0.58-1.12,1.034-1.592c0.502-0.531,1.066-0.936,1.697-1.209
		c0.63-0.275,1.308-0.41,2.032-0.41c1.182,0,2.204,0.333,3.068,1.005c0.863,0.67,1.429,1.572,1.705,2.706H133.752L133.752,17.618z
		 M122.689,23.826v-1.183c-0.268,0.477-0.644,0.832-1.132,1.059c-0.485,0.228-1.11,0.342-1.869,0.342
		c-1.422,0-2.613-0.488-3.565-1.459c-0.954-0.972-1.432-2.179-1.432-3.62c0-0.678,0.119-1.32,0.358-1.927
		c0.238-0.608,0.577-1.142,1.026-1.603c0.475-0.507,1.008-0.881,1.591-1.123c0.58-0.242,1.24-0.365,1.97-0.365
		c0.7,0,1.304,0.116,1.807,0.351c0.507,0.233,0.912,0.587,1.221,1.061l0-1.167h2.189v9.634H122.689L122.689,23.826z M116.984,18.93
		c0,0.811,0.269,1.489,0.811,2.036c0.537,0.547,1.195,0.819,1.97,0.819c0.707,0,1.328-0.275,1.865-0.822
		c0.537-0.55,0.807-1.191,0.807-1.927c0-0.784-0.27-1.457-0.812-2.018c-0.535-0.566-1.17-0.846-1.893-0.846
		c-0.758,0-1.407,0.265-1.944,0.802C117.254,17.506,116.984,18.159,116.984,18.93L116.984,18.93L116.984,18.93z M111.082,23.826
		v-1.044c-0.326,0.439-0.701,0.764-1.125,0.977c-0.422,0.212-0.908,0.32-1.449,0.32c-1.205,0-2.136-0.371-2.786-1.112
		c-0.649-0.741-0.971-1.809-0.971-3.197v-5.579h2.268v4.325c0,1.304,0.151,2.194,0.445,2.672c0.301,0.478,0.815,0.717,1.545,0.717
		c0.747,0,1.282-0.268,1.605-0.806c0.324-0.535,0.484-1.447,0.484-2.731v-4.177h2.207v9.634H111.082L111.082,23.826z M96.567,11.076
		v4.211c0.326-0.436,0.701-0.759,1.123-0.971c0.425-0.21,0.904-0.314,1.446-0.314c1.204,0,2.13,0.37,2.769,1.109
		c0.645,0.738,0.963,1.798,0.963,3.188v5.527h-2.242v-4.247c0-1.321-0.146-2.214-0.44-2.684c-0.298-0.47-0.81-0.705-1.546-0.705
		c-0.749,0-1.286,0.262-1.61,0.792c-0.327,0.53-0.491,1.434-0.491,2.72v4.124h-2.162v-12.75H96.567L96.567,11.076z M86.305,12.94
		l1.787-3.048h1.941L87.45,12.94H86.305L86.305,12.94z M90.232,23.826v-1.183c-0.269,0.477-0.644,0.832-1.131,1.059
		c-0.488,0.228-1.112,0.342-1.872,0.342c-1.424,0-2.612-0.488-3.565-1.459c-0.954-0.972-1.433-2.179-1.433-3.62
		c0-0.678,0.12-1.32,0.359-1.927c0.24-0.608,0.579-1.142,1.027-1.603c0.476-0.507,1.008-0.881,1.591-1.123
		c0.584-0.242,1.242-0.365,1.969-0.365c0.7,0,1.304,0.116,1.807,0.351c0.507,0.233,0.913,0.587,1.219,1.061v-1.167h2.193v9.634
		H90.232L90.232,23.826z M84.527,18.93c0,0.811,0.269,1.489,0.81,2.036c0.539,0.547,1.195,0.819,1.973,0.819
		c0.705,0,1.328-0.275,1.866-0.822c0.535-0.55,0.805-1.191,0.805-1.927c0-0.784-0.27-1.457-0.811-2.018
		c-0.54-0.566-1.173-0.846-1.894-0.846c-0.758,0-1.406,0.265-1.944,0.802C84.796,17.506,84.527,18.159,84.527,18.93L84.527,18.93
		L84.527,18.93z M74.563,14.192v1.094c0.326-0.436,0.704-0.759,1.125-0.971c0.423-0.21,0.903-0.314,1.449-0.314
		c0.689,0,1.3,0.131,1.816,0.395c0.516,0.262,0.949,0.654,1.292,1.18c0.221,0.349,0.379,0.751,0.478,1.196
		c0.095,0.445,0.141,1.1,0.141,1.957v5.096h-2.239V19.56c0-1.291-0.15-2.175-0.446-2.654c-0.298-0.477-0.813-0.717-1.54-0.717
		c-0.749,0-1.286,0.262-1.613,0.792c-0.324,0.53-0.49,1.434-0.49,2.72v4.124H72.37v-9.634H74.563L74.563,14.192z M63.477,21.154
		l-0.989,2.671h-2.586l4.947-12.75h2.155l4.877,12.75H69.21l-1.003-2.671H63.477L63.477,21.154z M67.381,18.789l-1.507-4.106
		l-1.538,4.106H67.381L67.381,18.789z"/>
</g>
</svg>